<?xml version="1.0" standalone="no"?><!DOCTYPE svg PUBLIC "-//W3C//DTD SVG 1.1//EN" "http://www.w3.org/Graphics/SVG/1.1/DTD/svg11.dtd"><svg t="1659701966202" class="icon" viewBox="0 0 1024 1024" version="1.1" xmlns="http://www.w3.org/2000/svg" p-id="4343" xmlns:xlink="http://www.w3.org/1999/xlink" width="16" height="16" ><defs><style type="text/css">@font-face { font-family: feedback-iconfont; src: url("//at.alicdn.com/t/font_1031158_u69w8yhxdu.woff2?t=1630033759944") format("woff2"), url("//at.alicdn.com/t/font_1031158_u69w8yhxdu.woff?t=1630033759944") format("woff"), url("//at.alicdn.com/t/font_1031158_u69w8yhxdu.ttf?t=1630033759944") format("truetype"); }
</style></defs><path d="M527.520563 46.849024c-248.062669 0-449.158758 201.08585-449.158758 449.140326 0 248.054579 201.095066 449.140326 449.158758 449.140326s449.158758-201.08585 449.158758-449.140326C976.679322 247.934771 775.583232 46.849024 527.520563 46.849024zM527.520563 892.109107c-218.779546 0-396.136038-177.348198-396.136038-396.119757 0-218.773606 177.356493-396.121805 396.136038-396.121805 218.781594 0 396.137062 177.348198 396.137062 396.121805C923.656602 714.761933 746.302157 892.109107 527.520563 892.109107zM575.906509 585.772237c0 9.569997 0.533197 16.789402 1.606656 21.654221 1.072435 4.868915 2.969805 8.828109 5.693952 11.879526 2.721075 3.055616 6.639514 5.443994 11.755213 7.177421 5.112627 1.732506 11.547443 3.055616 19.304448 3.957146 7.752909 0.91177 17.981235 1.53088 30.690202 1.858355l0 22.518876L431.367843 654.817782l0-22.518876c18.31383-0.825856 31.389184-1.937101 39.228006-3.344179 7.834726-1.396838 13.817242-3.501773 17.944371-6.309683 4.123034-2.801766 7.133798-6.76096 9.035162-11.877478 1.893171-5.112422 2.844877-13.448294 2.844877-24.99625L500.420259 406.837892c0-6.763008-1.280205-11.631923-3.835494-14.602547-2.56041-2.9696-6.064333-4.455424-10.51904-4.455424-4.126106 0-9.942835 1.899213-17.449062 5.692621-7.509299 3.79648-19.841741 11.55113-37.000192 23.262822l-15.096422-26.23447L545.710592 313.039565l31.680811 0c-0.991642 15.839744-1.484902 37.784576-1.484902 65.832346L575.906501 585.77219z" p-id="4344"></path></svg>