<?xml version="1.0" standalone="no"?><!DOCTYPE svg PUBLIC "-//W3C//DTD SVG 1.1//EN" "http://www.w3.org/Graphics/SVG/1.1/DTD/svg11.dtd"><svg t="1659702016794" class="icon" viewBox="0 0 1024 1024" version="1.1" xmlns="http://www.w3.org/2000/svg" p-id="8689" xmlns:xlink="http://www.w3.org/1999/xlink" width="16" height="16"><defs><style type="text/css">@font-face { font-family: feedback-iconfont; src: url("//at.alicdn.com/t/font_1031158_u69w8yhxdu.woff2?t=1630033759944") format("woff2"), url("//at.alicdn.com/t/font_1031158_u69w8yhxdu.woff?t=1630033759944") format("woff"), url("//at.alicdn.com/t/font_1031158_u69w8yhxdu.ttf?t=1630033759944") format("truetype"); }
</style></defs><path d="M511.997953 962.919876c-248.285806 0-449.607998-201.865567-449.607998-450.964902 0-249.00826 201.322192-450.875874 449.607998-450.875874s449.612091 201.867614 449.612091 450.875874C961.610044 761.054309 760.28376 962.919876 511.997953 962.919876L511.997953 962.919876zM511.997953 130.48075c-210.102159 0-380.480594 170.830737-380.480594 381.474224 0 210.734562 170.379459 381.566322 380.480594 381.566322 210.100112 0 380.480594-170.83176 380.480594-381.566322C892.478548 301.311487 722.097042 130.48075 511.997953 130.48075L511.997953 130.48075zM434.453856 625.87249c12.57848-20.99108 37.462217-48.76975 74.648141-83.333964 29.953196-27.958772 48.317449-46.959521 55.105039-56.913221 9.137101-13.753235 13.752212-27.325345 13.752212-40.807405 0-14.838963-3.982708-26.239618-11.941983-34.202986-7.963369-7.961322-18.908652-12.033058-32.93511-12.033058-13.934361 0-24.885783 4.251837-33.121352 12.576433-8.229428 8.41567-12.935614 22.258956-14.201443 41.62298l-66.140373-6.605442c3.889587-36.646642 16.282848-62.977333 37.092803-78.902024 20.809955-15.923668 46.780443-23.977088 77.995375-23.977088 34.206056 0 61.0791 9.320273 80.623225 27.77867 19.544125 18.549471 29.317723 41.531905 29.317723 69.038376 0 15.651468-2.806929 30.581506-8.328689 44.698015-5.609765 14.114462-14.474666 28.953426-26.691919 44.515866-7.961322 10.225899-22.530133 25.064862-43.520189 44.338834-20.99108 19.271926-34.385135 32.120558-39.906895 38.4538-5.605671 6.244214-10.132778 12.487406-13.661138 18.459421l132.107807 0 0 61.800531-232.904491 0C414.276305 668.942425 421.87947 646.774543 434.453856 625.87249L434.453856 625.87249z" p-id="8690"></path></svg>