<?xml version="1.0" standalone="no"?><!DOCTYPE svg PUBLIC "-//W3C//DTD SVG 1.1//EN" "http://www.w3.org/Graphics/SVG/1.1/DTD/svg11.dtd"><svg t="1659432448361" class="icon" viewBox="0 0 1024 1024" version="1.1" xmlns="http://www.w3.org/2000/svg" p-id="8445" xmlns:xlink="http://www.w3.org/1999/xlink" width="14" height="14"><defs><style type="text/css">@font-face { font-family: feedback-iconfont; src: url("//at.alicdn.com/t/font_1031158_u69w8yhxdu.woff2?t=1630033759944") format("woff2"), url("//at.alicdn.com/t/font_1031158_u69w8yhxdu.woff?t=1630033759944") format("woff"), url("//at.alicdn.com/t/font_1031158_u69w8yhxdu.ttf?t=1630033759944") format("truetype"); }
</style></defs><path d="M479.797566 0.102331c-264.97286 0-479.777111 214.776621-479.777111 479.777111 0 264.942161 214.804251 479.781204 479.777111 479.781204 264.967744 0 479.806787-214.839043 479.806787-479.781204C959.604353 214.878952 744.765309 0.102331 479.797566 0.102331zM479.797566 895.689682c-229.640144 0-415.806147-186.160887-415.806147-415.810241 0-229.646284 186.166003-415.807171 415.806147-415.807171 229.668797 0 415.835823 186.160887 415.835823 415.807171C895.633389 709.528795 709.467385 895.689682 479.797566 895.689682z" p-id="8446"></path><path d="M564.474107 619.881033c-21.23872 17.681708-47.101761 26.486234-77.617775 26.486234-25.111934 0-48.477085-6.557346-70.091358-19.428491-21.490453-12.932544-37.358863-32.484855-47.602158-58.595536-10.18599-26.173103-15.306614-56.725956-15.306614-91.777263 0-27.172873 4.312212-53.597709 12.932544-79.148641 8.619308-25.611308 23.48897-45.979194 44.855604-61.22441 21.236674-15.116279 47.724954-22.675442 79.462796-22.675442 27.51568 0 50.376341 6.811126 68.559469 20.428262 18.176988 13.747095 32.04688 35.606962 41.60456 65.531506l53.66013-12.679787c-11.0558-37.983079-30.547737-67.469648-58.72038-88.458681-28.109198-20.990057-62.784952-31.608905-104.042611-31.608905-36.360116 0-69.6585 8.366551-99.892081 24.987091-30.300097 16.555048-53.597709 40.851407-70.028936 72.77549-16.430204 31.984459-24.617677 69.405743-24.617677 112.38665 0 39.295981 7.216355 76.154447 21.804608 110.391203 14.494109 34.358529 35.735899 60.533678 63.532989 78.585823 27.801183 18.116613 63.907519 27.111474 108.387569 27.111474 42.885739 0 79.244832-11.742439 108.917642-35.229362 29.738301-23.553439 50.291406-57.726749 61.72276-102.516862l-54.54222-13.746072C599.957249 576.153112 585.5931 602.327238 564.474107 619.881033z" p-id="8447"></path></svg>