<?xml version="1.0" standalone="no"?><!DOCTYPE svg PUBLIC "-//W3C//DTD SVG 1.1//EN" "http://www.w3.org/Graphics/SVG/1.1/DTD/svg11.dtd"><svg t="1659276219845" class="icon" viewBox="0 0 1024 1024" version="1.1" xmlns="http://www.w3.org/2000/svg" p-id="5797" xmlns:xlink="http://www.w3.org/1999/xlink" width="16" height="16"><defs><style type="text/css">@font-face { font-family: feedback-iconfont; src: url("//at.alicdn.com/t/font_1031158_u69w8yhxdu.woff2?t=1630033759944") format("woff2"), url("//at.alicdn.com/t/font_1031158_u69w8yhxdu.woff?t=1630033759944") format("woff"), url("//at.alicdn.com/t/font_1031158_u69w8yhxdu.ttf?t=1630033759944") format("truetype"); }
</style></defs><path d="M512 266.723556c-19.996444 0-39.196444 1.422222-57.628444 4.124444-23.324444 3.356444-45.056-12.088889-48.554667-34.531556-3.527111-22.442667 12.515556-43.377778 35.84-46.734222 22.613333-3.299556 46.08-5.034667 70.343111-5.034666 175.388444 0 303.36 91.022222 385.308444 177.777777a761.059556 761.059556 0 0 1 114.858667 159.175111c2.56 4.864 5.063111 9.756444 7.480889 14.705778l0.426667 0.938667 0.170666 0.341333v0.085334l0.028445 0.028444-38.968889 16.725333 39.025778 16.725334-0.085334 0.113777-0.085333 0.227556-0.341333 0.739556a624.355556 624.355556 0 0 1-22.613334 41.642666 770.389333 770.389333 0 0 1-67.84 96.227556 43.804444 43.804444 0 0 1-59.591111 6.144 40.078222 40.078222 0 0 1-7.196444-57.287111 686.478222 686.478222 0 0 0 71.168-104.533334 678.968889 678.968889 0 0 0-99.555556-136.675555C760.945778 340.053333 654.165333 266.723556 512 266.723556z m469.333333 287.601777l38.968889 16.725334a39.822222 39.822222 0 0 0 0-33.450667l-38.968889 16.725333zM186.965333 359.594667c8.391111 7.338667 13.368889 17.578667 13.909334 28.444444 0.512 10.894222-3.470222 21.532444-11.093334 29.582222a679.168 679.168 0 0 0-99.555555 136.704 679.367111 679.367111 0 0 0 99.555555 136.704C263.111111 768.568889 369.834667 841.927111 512 841.927111a394.808889 394.808889 0 0 0 134.4-23.239111c21.902222-7.395556 45.909333 3.470222 54.044444 24.405333 8.106667 20.935111-2.616889 44.259556-24.177777 52.536889A483.185778 483.185778 0 0 1 512 924.103111c-175.388444 0-303.36-91.022222-385.308444-177.777778a760.917333 760.917333 0 0 1-114.858667-159.175111c-2.56-4.835556-5.063111-9.756444-7.480889-14.705778l-0.426667-0.938666-0.170666-0.341334-0.028445-0.056888v-0.056889l38.968889-16.725334L3.640889 537.6l0.056889-0.028444 0.028444-0.085334 0.142222-0.341333 0.426667-0.938667 1.621333-3.185778c8.817778-17.464889 18.488889-34.531556 28.842667-51.171555a763.505778 763.505778 0 0 1 91.875556-119.523556 43.349333 43.349333 0 0 1 29.582222-13.368889c11.292444-0.540444 22.357333 3.299556 30.72 10.638223zM42.666667 554.325333L3.697778 537.6a39.822222 39.822222 0 0 0 0 33.450667l38.968889-16.725334z" p-id="5798"></path><path d="M469.816889 364.544c0-22.784 19.000889-41.272889 42.439111-41.272889 128.113778 0 229.233778 104.391111 229.233778 229.916445 0 14.734222-8.106667 28.359111-21.219556 35.754666a43.52 43.52 0 0 1-42.467555 0 41.073778 41.073778 0 0 1-21.219556-35.754666c0-82.915556-66.133333-147.370667-144.327111-147.370667-23.438222 0-42.439111-18.488889-42.439111-41.272889z m-130.929778 107.008c22.926222 4.807111 37.489778 26.737778 32.568889 49.038222a151.04 151.04 0 0 0-3.527111 32.597334c0 82.915556 66.133333 147.370667 144.327111 147.370666 11.207111 0 22.072889-1.28 32.483556-3.697778 22.755556-5.376 45.710222 8.248889 51.2 30.407112 5.546667 22.158222-8.476444 44.458667-31.260445 49.806222a229.063111 229.063111 0 0 1-52.423111 5.973333c-128.113778 0-229.233778-104.391111-229.233778-229.916444 0-17.066667 1.877333-33.848889 5.432889-49.92 2.360889-10.695111 9.016889-20.053333 18.488889-25.998223 9.443556-5.973333 20.935111-7.992889 31.943111-5.688888v0.028444zM100.209778 111.303111a43.320889 43.320889 0 0 1 60.017778 0L924.302222 854.186667c16.099556 16.213333 15.872 41.955556-0.512 57.856a43.320889 43.320889 0 0 1-59.505778 0.512L100.209778 169.671111a40.476444 40.476444 0 0 1 0-58.368z" p-id="5799"></path></svg>