<?xml version="1.0" standalone="no"?><!DOCTYPE svg PUBLIC "-//W3C//DTD SVG 1.1//EN" "http://www.w3.org/Graphics/SVG/1.1/DTD/svg11.dtd"><svg t="1660099522989" class="icon" viewBox="0 0 1024 1024" version="1.1" xmlns="http://www.w3.org/2000/svg" p-id="2319" xmlns:xlink="http://www.w3.org/1999/xlink" width="32" height="32"><defs><style type="text/css">@font-face { font-family: feedback-iconfont; src: url("//at.alicdn.com/t/font_1031158_u69w8yhxdu.woff2?t=1630033759944") format("woff2"), url("//at.alicdn.com/t/font_1031158_u69w8yhxdu.woff?t=1630033759944") format("woff"), url("//at.alicdn.com/t/font_1031158_u69w8yhxdu.ttf?t=1630033759944") format("truetype"); }
</style></defs><path d="M512 0C228.430769 0 0 228.430769 0 512s228.430769 512 512 512 512-228.430769 512-512S795.569231 0 512 0z m0 945.230769C271.753846 945.230769 78.769231 752.246154 78.769231 512S271.753846 78.769231 512 78.769231s433.230769 192.984615 433.230769 433.230769-192.984615 433.230769-433.230769 433.230769z" p-id="2320" fill="#1296db"></path><path d="M716.8 330.830769l-208.738462 248.123077c-15.753846 15.753846-43.323077 19.692308-59.076923 7.876923L299.323077 472.615385c-15.753846-11.815385-43.323077-7.876923-55.138462 7.876923-11.815385 15.753846-7.876923 43.323077 7.876923 55.138461l149.661539 114.215385c19.692308 15.753846 47.261538 23.630769 74.830769 23.630769 35.446154 0 70.892308-15.753846 94.523077-43.323077l208.738462-248.123077c15.753846-15.753846 11.815385-43.323077-3.938462-55.138461-19.692308-15.753846-43.323077-15.753846-59.076923 3.938461z" p-id="2321" fill="#1296db"></path></svg>