
<svg width="148px" height="123px" viewBox="0 0 148 123" version="1.1" xmlns="http://www.w3.org/2000/svg" xmlns:xlink="http://www.w3.org/1999/xlink">
    <g id="页面2" stroke="none" stroke-width="1" fill="none" fill-rule="evenodd">
        <g id="画板" transform="translate(-23.000000, -18.000000)" fill-rule="nonzero">
            <g id="project|images|officialImages|LogoSingle.svg" transform="translate(23.000000, 17.000000)">
                <g id="编组">
                    <path d="M117.435484,33.3870968 C115.023473,28.4605235 111.847099,23.9466438 108.024194,20.0129032 C98.2016129,9.84193548 84.45,3.29032258 69.3,1.56290323 C66.6398401,1.25811411 63.9646564,1.10303099 61.2870968,1.0983871 C58.8145161,1.0983871 56.2354839,1.24354839 53.6177419,1.52903226 C38.4048387,3.18387097 24.5758065,9.70645161 14.6806452,19.8774194 C10.8441754,23.7979536 7.65155149,28.3002882 5.22096774,33.2177419 C2.03101865,39.6503106 0.370100031,46.732812 0.367741935,53.9129032 C0.367741935,63.15 3.17419355,72.2516129 8.48709677,80.2451613 C11.1774194,84.2951613 15.5758065,89.3951613 19.6258065,92.9903226 L19.6258065,93 L17.7967742,107.390323 C17.7241935,107.583871 17.6467742,107.777419 17.6032258,107.985484 C17.5548387,108.174194 17.5451613,108.367742 17.5258065,108.56129 C17.516129,108.706452 17.4774194,108.851613 17.4774194,109.001613 C17.4774194,109.16129 17.516129,109.316129 17.5258065,109.475806 C17.7677419,111.841935 19.7419355,113.695161 22.1709677,113.695161 C23.0177419,113.695161 23.8016129,113.453226 24.483871,113.06129 L24.5516129,113.022581 C24.6483871,112.964516 24.7548387,112.91129 24.8516129,112.848387 L29.2209677,110.651613 L42.2370968,104.109677 C45.9575199,105.165173 49.7618794,105.898524 53.6080645,106.301613 C58.8239685,106.872291 64.0873438,106.857684 69.3,106.258065 C74.5393588,105.659015 79.6915375,104.454188 84.6532258,102.667742 C80.8972762,101.421323 78.5033695,97.7420971 78.8854839,93.8032258 C75.4016129,94.916129 71.7629032,95.7048387 67.9983871,96.1354839 C63.6329035,96.638617 59.2248234,96.651601 54.8564516,96.1741935 C54.4209677,96.1258065 53.9758065,96.0532258 53.5306452,95.9951613 C50.6180812,95.612724 47.7388136,95.0093719 44.9177419,94.1903226 C44.3387644,94.0066003 43.7348467,93.9135643 43.1274194,93.9145161 C42.1596774,93.9145161 41.2306452,94.1709677 40.2822581,94.6596774 C40.1564516,94.7274194 40.0403226,94.7806452 39.9145161,94.8532258 L29.2209677,101.158065 L28.7564516,101.433871 L28.7419355,101.43871 C28.5145161,101.574194 28.3790323,101.627419 28.2580645,101.627419 C27.8590835,101.616859 27.5434907,101.286135 27.5516129,100.887097 L27.9629032,99.2177419 L28.4370968,97.4032258 L29.2209677,94.4322581 L30.0870968,91.1129032 C30.6776916,89.2725956 30.0271836,87.2606953 28.4709677,86.1145161 C26.9072513,84.9531977 25.415776,83.6976437 24.0048387,82.3548387 C21.5854839,80.0564516 19.4564516,77.5451613 17.666129,74.8548387 C13.4612903,68.5258065 11.2403226,61.3451613 11.2403226,54.0822581 C11.2403226,48.45 12.5274194,42.9677419 15.0629032,37.7951613 C17.014735,33.8531533 19.5769492,30.2441709 22.6548387,27.1016129 C30.783871,18.7403226 42.2274194,13.3741935 54.8612903,12.0048387 C57.0580645,11.7629032 59.2209677,11.6419355 61.2870968,11.6419355 C63.4596774,11.6419355 65.7193548,11.7725806 68.0032258,12.0290323 C80.5790323,13.4612903 91.95,18.8516129 100.020968,27.2129032 C103.086423,30.3651735 105.634024,33.9824411 107.569355,37.9306452 C110.040269,42.9567097 111.32799,48.4816592 111.333871,54.0822581 C111.333871,54.6629032 111.3,55.2435484 111.270968,55.8241935 C114.600504,53.7738997 118.901935,54.2763005 121.669355,57.0387097 C121.814516,57.183871 121.930645,57.3387097 122.056452,57.4887097 C122.153226,56.2983871 122.206452,55.1080645 122.206452,53.9129032 C122.204449,46.7948574 120.572412,39.7718013 117.435484,33.3822581" id="路径" fill="#0082F0"></path>
                    <path d="M116.85,107.167742 C116.515161,107.090116 116.175786,107.033554 115.833871,106.998387 C110.249041,105.959649 105.157632,103.121647 101.337097,98.9177419 L101.337097,98.9225806 C100.792866,98.3923235 99.9973576,98.2118288 99.2775758,98.4552913 C98.5577941,98.6987537 98.0351928,99.3250923 97.9245944,100.076842 C97.8139959,100.828592 98.1340622,101.578905 98.7532258,102.019355 C98.9516129,102.212903 99.15,102.396774 99.3387097,102.590323 C102.992266,106.237598 105.481215,110.887117 106.490323,115.95 C106.524643,116.532635 106.620333,117.110024 106.775806,117.672581 C107.567251,120.587175 109.851933,122.859117 112.770907,123.634251 C115.689882,124.409386 118.800717,123.570225 120.933871,121.432258 C123.111899,119.251616 123.936577,116.061609 123.088281,113.098604 C122.239985,110.135599 119.852058,107.865347 116.85,107.167742" id="路径" fill="#FB6500"></path>
                    <path d="M144.890323,85.5145161 C142.581991,83.1994305 139.147161,82.4199612 136.065664,83.5119279 C132.984167,84.6038947 130.806538,87.3722084 130.470968,90.6241935 C129.435417,96.2110312 126.603032,101.306607 122.404839,105.135484 C121.858559,105.678126 121.66682,106.483386 121.90993,107.213988 C122.15304,107.944591 122.789034,108.47442 123.551531,108.581563 C124.314029,108.688705 125.07141,108.354666 125.506452,107.719355 L126.072581,107.133871 C129.712217,103.47598 134.357529,100.983209 139.417742,99.9725806 C139.998597,99.9396825 140.574362,99.8456138 141.135484,99.6919355 C144.04723,98.8902454 146.3136,96.6016232 147.086803,93.6821835 C147.860006,90.7627438 147.023547,87.6523484 144.890323,85.5145161" id="路径" fill="#0082F0"></path>
                    <path d="M109.016129,61.533871 C106.711697,63.8461867 105.937783,67.2752911 107.025691,70.3532234 C108.113598,73.4311557 110.870474,75.6122884 114.116129,75.9629032 C119.701081,77.0013027 124.792592,79.8393611 128.612903,84.0435484 C129.155545,84.5898282 129.960805,84.7815672 130.691408,84.5384571 C131.42201,84.2953471 131.951839,83.6593533 132.058982,82.8968556 C132.166125,82.134358 131.832086,81.3769774 131.196774,80.9419355 C127.225539,77.220145 124.518412,72.3490094 123.454839,67.0112903 C123.425147,66.4300883 123.331022,65.853979 123.174194,65.2935484 C122.380205,62.380948 120.095618,60.1113405 117.177858,59.3365285 C114.260097,58.5617166 111.150502,59.3988978 109.016129,61.533871" id="路径" fill="#2DBC00"></path>
                    <path d="M99.4016129,92.8548387 C99.4306452,92.6806452 99.4548387,92.516129 99.4741935,92.3419355 C100.511753,86.7533486 103.345677,81.6563634 107.545161,77.8258065 C108.12006,77.288992 108.333568,76.4686335 108.09331,75.7196646 C107.853052,74.9706958 107.202174,74.4276195 106.422283,74.3254015 C105.642392,74.2231836 104.873545,74.5801806 104.448387,75.2419355 C100.733282,79.2141715 95.8663584,81.9217784 90.5322581,82.983871 C89.9511384,83.020639 89.375441,83.11794 88.8145161,83.2741935 C85.9027702,84.0758837 83.6364004,86.3645058 82.8631973,89.2839455 C82.0899941,92.2033853 82.9264535,95.3137806 85.0596774,97.4516129 C87.3026293,99.6955914 90.6118149,100.497445 93.633158,99.529066 C96.6545011,98.5606868 98.8810051,95.9845735 99.4016129,92.8548387" id="路径" fill="#FFCC00"></path>
                </g>
            </g>
        </g>
    </g>
</svg>