<?xml version="1.0" standalone="no"?><!DOCTYPE svg PUBLIC "-//W3C//DTD SVG 1.1//EN" "http://www.w3.org/Graphics/SVG/1.1/DTD/svg11.dtd"><svg t="1659701762423" class="icon" viewBox="0 0 1024 1024" version="1.1" xmlns="http://www.w3.org/2000/svg" p-id="3367" xmlns:xlink="http://www.w3.org/1999/xlink" width="16" height="16"><defs><style type="text/css">@font-face { font-family: feedback-iconfont; src: url("//at.alicdn.com/t/font_1031158_u69w8yhxdu.woff2?t=1630033759944") format("woff2"), url("//at.alicdn.com/t/font_1031158_u69w8yhxdu.woff?t=1630033759944") format("woff"), url("//at.alicdn.com/t/font_1031158_u69w8yhxdu.ttf?t=1630033759944") format("truetype"); }
</style></defs><path d="M998.4 128H25.6C11.462 128 0 139.46 0 153.6v716.8C0 884.541 11.462 896 25.6 896h972.8c14.14 0 25.6-11.459 25.6-25.6V153.6c0-14.14-11.46-25.6-25.6-25.6z m-110.98 51.2L514.405 473.69 135.82 179.2h751.6z m85.38 639.999c0 14.141-11.46 25.602-25.6 25.602H76.8c-14.137 0-25.6-11.461-25.6-25.602V204.8c0-1.326 0.195-2.6 0.39-3.87l463.525 360.566 457.25-360.991c0.24 1.405 0.435 2.825 0.435 4.295v614.399z" fill="#231815" p-id="3368"></path></svg>