<?xml version="1.0" standalone="no"?><!DOCTYPE svg PUBLIC "-//W3C//DTD SVG 1.1//EN" "http://www.w3.org/Graphics/SVG/1.1/DTD/svg11.dtd"><svg t="1659340648092" class="icon" viewBox="0 0 1024 1024" version="1.1" xmlns="http://www.w3.org/2000/svg" p-id="7544" xmlns:xlink="http://www.w3.org/1999/xlink" width="16" height="16" color="#1890ff"><defs><style type="text/css">@font-face { font-family: feedback-iconfont; src: url("//at.alicdn.com/t/font_1031158_u69w8yhxdu.woff2?t=1630033759944") format("woff2"), url("//at.alicdn.com/t/font_1031158_u69w8yhxdu.woff?t=1630033759944") format("woff"), url("//at.alicdn.com/t/font_1031158_u69w8yhxdu.ttf?t=1630033759944") format("truetype"); }
</style></defs><path d="M167.499571 106.714419c101.652275 0 203.305472 0 304.957747 0 31.011533 3.070976 23.53705 57.657139 23.53705 93.120819 0 63.699763 0 105.683968 0 168.845517 0 36.696781 6.910669 81.674138-17.396941 92.097536-15.830221 6.788608-58.314445 2.046566-78.797824 2.046566-56.236032 0-101.948006 0-161.688986 0-37.376717 0-88.413184 8.92119-94.147994-23.536026 0-103.013171 0-206.025318 0-309.03849C148.141875 118.739354 155.493683 110.40041 167.499571 106.714419zM209.456845 176.299315c0 73.337242 0 146.673562 0 220.010803 73.340314 0 146.679603 0 220.019814 0 0-74.360627 0-148.720128 0-223.080755-72.998502 0-145.998029 0-218.996531 0C209.287987 173.401293 209.368883 174.847181 209.456845 176.299315zM576.838861 106.714419c101.652275 0 203.305472 0 304.957747 0 12.439859 4.615066 20.987802 13.123891 23.53705 27.629261 0 100.284006 0 200.569037 0 300.852019-2.790707 12.501709-9.318605 23.181005-21.490278 26.605978-19.891814 5.596467-52.943974 1.023283-76.751155 1.023283-56.09175 0-102.084096 0-156.572262 0-23.611699 0-58.605056 4.973261-77.774438-1.023283-27.060429-8.465818-19.44361-61.287834-19.44361-98.23744 0-49.081856 0-106.373734 0-157.589197C553.301811 163.312538 543.937126 112.675226 576.838861 106.714419zM618.796134 176.299315c0 73.337242 0 146.673562 0 220.010803 73.340314 0 146.679603 0 220.019814 0 0-74.360627 0-148.720128 0-223.080755-72.998502 0-145.998029 0-218.996531 0C618.627277 173.401293 618.70807 174.847181 618.796134 176.299315zM309.744947 240.76759c30.642074-5.782733 54.739866 14.920806 55.260774 42.978816 0.686694 37.000704-37.105562 57.326592-66.517606 41.955533C264.839475 308.11648 267.053978 248.824115 309.744947 240.76759zM719.084237 240.76759c72.177766-13.484134 70.79424 100.818125 0 89.027686C674.031309 322.292326 672.577126 249.456435 719.084237 240.76759zM470.41065 878.28736c-100.62889 0-201.257779 0-301.887693 0-12.532941-3.840512-20.999066-11.747533-24.560333-24.559309 0-102.67136 0-205.343744 0-308.015206 2.980966-9.013248 9.862042-19.528806 20.466995-22.512742 20.032-5.636403 52.753613-1.023283 76.751155-1.023283 55.154381 0 105.117286 0 156.572262 0 23.139942 0 56.816333-5.164646 77.774438 1.023283 28.353946 8.370688 20.466995 60.335206 20.466995 97.214054 0 56.6912 0 105.050522 0 162.705715C495.994368 822.923366 504.565862 874.733363 470.41065 878.28736zM209.456845 591.761613c0 73.338266 0 146.673562 0 220.010803 73.340314 0 146.679603 0 220.019814 0 0-74.360627 0-148.720128 0-223.080755-72.998502 0-145.998029 0-218.996531 0C209.287987 588.86359 209.368883 590.309581 209.456845 591.761613zM905.333555 549.80608c0 28.652544 0 57.30519 0 85.957734-2.387456 28.994355-0.341811 62.420685-1.023386 93.120819-72.657715 0-145.31543 0-217.973146 0 0-16.713626 0-33.428378 0-50.142003-20.468019-2.38633-45.367091-0.341811-67.540992-1.023283-2.387456 64.810086-0.340787 134.052045-1.023386 200.568013-13.303501 0-26.607002 0-39.910605 0-34.315981-6.877594-24.560333-58.36841-24.560333-99.260723 0-57.040077 0-103.972045 0-158.61248 0-23.849165-4.827136-59.602432 1.023386-78.794547 6.980301-22.897459 37.250867-19.44279 67.540992-19.44279 51.208294 0 96.830259 0 148.385485 0 0 45.366272 0 90.733466 0 136.099738 22.854451 0 45.709926 0 68.564275 0 0.681574-45.025485-1.364173-92.77911 1.023386-136.099738C872.833024 520.224358 903.395328 520.705229 905.333555 549.80608zM314.86167 655.206605c32.719462-3.621478 59.766579 27.822694 47.073997 62.421709-17.593446 47.957197-101.713613 29.932749-85.961216-30.699213C280.328806 670.169395 292.905779 657.636966 314.86167 655.206605zM760.018125 878.28736c-24.560333 0-49.120666 0-73.681101 0 0.681574-26.266214-1.363149-55.257498 1.023386-79.817933 24.219546 0 48.43817 0 72.657715 0C760.018125 825.075405 760.018125 851.681382 760.018125 878.28736zM905.333555 798.469427c0 17.396224 0 34.792448 0 52.18857-2.844877 14.55145-11.35401 23.438848-24.560333 27.629261-17.396941 0-34.793882 0-52.19072 0 0.681574-26.266214-1.363149-55.257498 1.023386-79.817933C854.848717 798.469427 880.090624 798.469427 905.333555 798.469427z" p-id="7545"></path></svg>