<?xml version="1.0" standalone="no"?><!DOCTYPE svg PUBLIC "-//W3C//DTD SVG 1.1//EN" "http://www.w3.org/Graphics/SVG/1.1/DTD/svg11.dtd"><svg t="1659276181380" class="icon" viewBox="0 0 1024 1024" version="1.1" xmlns="http://www.w3.org/2000/svg" p-id="5643" xmlns:xlink="http://www.w3.org/1999/xlink" width="16" height="16"><defs><style type="text/css">@font-face { font-family: feedback-iconfont; src: url("//at.alicdn.com/t/font_1031158_u69w8yhxdu.woff2?t=1630033759944") format("woff2"), url("//at.alicdn.com/t/font_1031158_u69w8yhxdu.woff?t=1630033759944") format("woff"), url("//at.alicdn.com/t/font_1031158_u69w8yhxdu.ttf?t=1630033759944") format("truetype"); }
</style></defs><path d="M515.2 224c-307.2 0-492.8 313.6-492.8 313.6s214.4 304 492.8 304 492.8-304 492.8-304S822.4 224 515.2 224zM832 652.8c-102.4 86.4-211.2 140.8-320 140.8s-217.6-51.2-320-140.8c-35.2-32-70.4-64-99.2-99.2-6.4-6.4-9.6-12.8-16-19.2 3.2-6.4 9.6-12.8 12.8-19.2 25.6-35.2 57.6-70.4 92.8-102.4 99.2-89.6 208-144 329.6-144s230.4 54.4 329.6 144c35.2 32 64 67.2 92.8 102.4 3.2 6.4 9.6 12.8 12.8 19.2-3.2 6.4-9.6 12.8-16 19.2C902.4 585.6 870.4 620.8 832 652.8z" p-id="5644"></path><path d="M512 345.6c-96 0-169.6 76.8-169.6 169.6 0 96 76.8 169.6 169.6 169.6 96 0 169.6-76.8 169.6-169.6C681.6 422.4 604.8 345.6 512 345.6zM512 640c-67.2 0-121.6-54.4-121.6-121.6 0-67.2 54.4-121.6 121.6-121.6 67.2 0 121.6 54.4 121.6 121.6C633.6 582.4 579.2 640 512 640z" p-id="5645"></path></svg>