<?xml version="1.0" standalone="no"?><!DOCTYPE svg PUBLIC "-//W3C//DTD SVG 1.1//EN" "http://www.w3.org/Graphics/SVG/1.1/DTD/svg11.dtd"><svg t="1660730342660" class="icon" viewBox="0 0 1024 1024" version="1.1" xmlns="http://www.w3.org/2000/svg" p-id="2388" xmlns:xlink="http://www.w3.org/1999/xlink" width="14" height="14"><defs><style type="text/css">@font-face { font-family: feedback-iconfont; src: url("//at.alicdn.com/t/font_1031158_u69w8yhxdu.woff2?t=1630033759944") format("woff2"), url("//at.alicdn.com/t/font_1031158_u69w8yhxdu.woff?t=1630033759944") format("woff"), url("//at.alicdn.com/t/font_1031158_u69w8yhxdu.ttf?t=1630033759944") format("truetype"); }
</style></defs><path d="M512.2 953.1c-99.6 0-199.7-33.3-282.2-101.7C42 695.6 15.9 416 171.7 228s435.5-214.1 623.4-58.3c53.8 44.6 95.2 99.5 123 163.1 7.5 17.2-0.3 37.3-17.6 44.9-17.2 7.5-37.3-0.3-44.9-17.6-23.5-53.8-58.5-100.2-104.1-137.9C592.6 90.3 356 112.5 224.1 271.5 92.3 430.5 114.4 667.1 273.5 799c159 131.8 395.6 109.7 527.5-49.3 19.7-23.8 36.4-49.8 49.6-77.4 8.1-17 28.5-24.1 45.4-16 17 8.1 24.1 28.5 16 45.4-15.6 32.6-35.3 63.4-58.6 91.4-87.4 105.5-213.9 160-341.2 160z" fill="#4D4D4D" p-id="2389"></path><path d="M910.9 544.6H440.8c-18.8 0-34.1-15.3-34.1-34.1s15.3-34.1 34.1-34.1h470.1c18.8 0 34.1 15.3 34.1 34.1 0 18.9-15.3 34.1-34.1 34.1z" fill="#4D4D4D" p-id="2390"></path></svg>